<svg width="381" height="45" viewBox="0 0 381 45" fill="none" xmlns="http://www.w3.org/2000/svg">
<g filter="url(#filter0_d)">
<path d="M3.96802 9.561L6.15802 14.445H22.056C22.236 14.445 22.403 14.507 22.554 14.632C22.705 14.758 22.811 14.886 22.871 15.019L22.961 15.196L32.078 38.71L48.16 8.193C48.942 6.711 50.48 5.783 52.155 5.783H59.68L62.834 0H50.391C48.207 0 46.208 1.225 45.217 3.171L33.004 27.154L27.667 12.53C27.017 10.747 25.322 9.561 23.425 9.561H3.96802Z" fill="#C75405"/>
<path d="M39.594 19.8349H30.977L38.11 6.21793C39.51 3.54593 42.238 1.87793 45.207 1.87793H61.065L58.676 8.12793H46.374C45.059 8.12793 43.858 8.89093 43.279 10.0959L41.46 13.8699C58.209 13.8699 59.897 35.4759 42.078 38.3389C40.814 38.5419 29.489 38.3389 28.027 38.3389C23.285 26.8969 19.745 18.2659 17.405 12.4439C17.376 12.3719 12.897 11.4109 3.967 9.55993L3 6.21793H16.306C18.15 6.21793 19.808 7.33893 20.496 9.04993L29.971 32.6269H38.111C42.82 32.6269 43.678 32.1609 45.061 29.3709C47.339 24.7729 45.182 19.8349 39.594 19.8349Z" fill="#373738"/>
<path d="M3.96802 9.561L6.15802 14.445H12.378C12.56 14.445 12.726 14.507 12.877 14.632C13.027 14.758 13.133 14.886 13.194 15.019L13.284 15.196L22.4 38.71L38.483 8.193C39.264 6.711 40.803 5.783 42.478 5.783H59.68L62.834 0H40.714C38.53 0 36.53 1.225 35.54 3.171L23.326 27.154L17.99 12.53C17.34 10.747 15.645 9.561 13.748 9.561H3.96802Z" fill="#FD6905"/>
</g>
<path d="M71 6.77278H82.8585C85.752 6.77278 88.3227 7.33761 90.5703 8.46726C92.818 9.57124 94.5619 11.1502 95.802 13.2041C97.0421 15.2323 97.6622 17.5815 97.6622 20.2516C97.6622 22.9217 97.0421 25.2837 95.802 27.3376C94.5619 29.3659 92.818 30.9448 90.5703 32.0745C88.3227 33.1784 85.752 33.7304 82.8585 33.7304H71V6.77278ZM82.6259 29.4942C84.6153 29.4942 86.3592 29.1219 87.8576 28.3774C89.3819 27.6072 90.5445 26.5289 91.3454 25.1425C92.1721 23.7304 92.5855 22.1001 92.5855 20.2516C92.5855 18.4031 92.1721 16.7856 91.3454 15.3992C90.5445 13.9872 89.3819 12.9089 87.8576 12.1643C86.3592 11.3941 84.6153 11.009 82.6259 11.009H76.0379V29.4942H82.6259Z" fill="#FD6905"/>
<path d="M111.852 34C109.76 34 107.874 33.5507 106.195 32.6521C104.515 31.7535 103.198 30.5083 102.242 28.9166C101.312 27.2991 100.847 25.4763 100.847 23.448C100.847 21.4198 101.312 19.6098 102.242 18.018C103.198 16.4262 104.515 15.181 106.195 14.2824C107.874 13.3838 109.76 12.9345 111.852 12.9345C113.971 12.9345 115.87 13.3838 117.549 14.2824C119.228 15.181 120.533 16.4262 121.463 18.018C122.419 19.6098 122.897 21.4198 122.897 23.448C122.897 25.4763 122.419 27.2991 121.463 28.9166C120.533 30.5083 119.228 31.7535 117.549 32.6521C115.87 33.5507 113.971 34 111.852 34ZM111.852 29.8793C113.635 29.8793 115.108 29.2888 116.27 28.1078C117.433 26.9268 118.014 25.3736 118.014 23.448C118.014 21.5225 117.433 19.9692 116.27 18.7882C115.108 17.6072 113.635 17.0167 111.852 17.0167C110.07 17.0167 108.597 17.6072 107.435 18.7882C106.298 19.9692 105.729 21.5225 105.729 23.448C105.729 25.3736 106.298 26.9268 107.435 28.1078C108.597 29.2888 110.07 29.8793 111.852 29.8793Z" fill="#FD6905"/>
<path d="M137.024 34C134.88 34 132.955 33.5507 131.25 32.6521C129.544 31.7535 128.214 30.5083 127.258 28.9166C126.302 27.2991 125.824 25.4763 125.824 23.448C125.824 21.4198 126.302 19.6098 127.258 18.018C128.214 16.4262 129.532 15.181 131.211 14.2824C132.916 13.3838 134.854 12.9345 137.024 12.9345C139.065 12.9345 140.847 13.3453 142.372 14.1669C143.922 14.9884 145.084 16.1694 145.86 17.7099L142.139 19.8665C141.545 18.9166 140.796 18.2105 139.892 17.7484C139.013 17.2606 138.044 17.0167 136.985 17.0167C135.177 17.0167 133.678 17.6072 132.49 18.7882C131.301 19.9435 130.707 21.4968 130.707 23.448C130.707 25.3992 131.288 26.9653 132.451 28.1463C133.639 29.3017 135.151 29.8793 136.985 29.8793C138.044 29.8793 139.013 29.6483 139.892 29.1861C140.796 28.6983 141.545 27.9795 142.139 27.0295L145.86 29.1861C145.059 30.7266 143.883 31.9204 142.333 32.7677C140.809 33.5892 139.039 34 137.024 34Z" fill="#FD6905"/>
<path d="M170.082 13.1656V33.7304H165.471V31.1117C164.696 32.0359 163.727 32.7548 162.564 33.2683C161.402 33.7561 160.149 34 158.805 34C156.041 34 153.858 33.2426 152.256 31.7279C150.68 30.1874 149.892 27.9153 149.892 24.9114V13.1656H154.736V24.2567C154.736 26.1053 155.15 27.4917 155.976 28.4159C156.829 29.3145 158.03 29.7638 159.58 29.7638C161.311 29.7638 162.681 29.2375 163.688 28.1849C164.722 27.1065 165.238 25.5661 165.238 23.5635V13.1656H170.082Z" fill="#FD6905"/>
<path d="M202.545 12.9345C205.154 12.9345 207.221 13.6919 208.745 15.2067C210.269 16.6958 211.031 18.9422 211.031 21.9461V33.7304H206.187V22.5623C206.187 20.7651 205.787 19.4172 204.986 18.5186C204.185 17.5944 203.035 17.1322 201.537 17.1322C199.909 17.1322 198.605 17.6714 197.623 18.7497C196.641 19.8023 196.15 21.3171 196.15 23.294V33.7304H191.306V22.5623C191.306 20.7651 190.906 19.4172 190.105 18.5186C189.304 17.5944 188.154 17.1322 186.656 17.1322C185.002 17.1322 183.685 17.6585 182.703 18.7112C181.747 19.7638 181.269 21.2914 181.269 23.294V33.7304H176.425V13.1656H181.037V15.7843C181.812 14.8601 182.78 14.154 183.943 13.6662C185.106 13.1784 186.397 12.9345 187.818 12.9345C189.368 12.9345 190.738 13.2298 191.926 13.8203C193.14 14.3851 194.096 15.2323 194.794 16.362C195.646 15.2837 196.744 14.4493 198.088 13.8588C199.431 13.2426 200.917 12.9345 202.545 12.9345Z" fill="#FD6905"/>
<path d="M236.865 23.5635C236.865 23.8973 236.839 24.3723 236.787 24.9884H220.55C220.834 26.5032 221.57 27.7099 222.759 28.6085C223.973 29.4814 225.472 29.9178 227.254 29.9178C229.528 29.9178 231.401 29.1733 232.873 27.6842L235.47 30.6496C234.54 31.7535 233.364 32.5879 231.943 33.1528C230.522 33.7176 228.921 34 227.138 34C224.864 34 222.862 33.5507 221.131 32.6521C219.4 31.7535 218.057 30.5083 217.101 28.9166C216.171 27.2991 215.706 25.4763 215.706 23.448C215.706 21.4454 216.158 19.6483 217.062 18.0565C217.992 16.439 219.271 15.181 220.899 14.2824C222.526 13.3838 224.361 12.9345 226.402 12.9345C228.417 12.9345 230.212 13.3838 231.788 14.2824C233.39 15.1553 234.63 16.4005 235.509 18.018C236.413 19.6098 236.865 21.4583 236.865 23.5635ZM226.402 16.7856C224.851 16.7856 223.534 17.2478 222.449 18.172C221.39 19.0706 220.744 20.2773 220.511 21.792H232.253C232.047 20.303 231.414 19.0963 230.354 18.172C229.295 17.2478 227.978 16.7856 226.402 16.7856Z" fill="#FD6905"/>
<path d="M253.26 12.9345C255.87 12.9345 257.962 13.6919 259.538 15.2067C261.114 16.7214 261.902 18.9679 261.902 21.9461V33.7304H257.058V22.5623C257.058 20.7651 256.632 19.4172 255.779 18.5186C254.927 17.5944 253.712 17.1322 252.136 17.1322C250.354 17.1322 248.946 17.6714 247.912 18.7497C246.879 19.8023 246.362 21.3299 246.362 23.3325V33.7304H241.518V13.1656H246.13V15.8228C246.931 14.8729 247.938 14.154 249.152 13.6662C250.367 13.1784 251.736 12.9345 253.26 12.9345Z" fill="#FD6905"/>
<path d="M280.487 32.6136C279.919 33.0757 279.221 33.4223 278.394 33.6534C277.594 33.8845 276.741 34 275.837 34C273.563 34 271.806 33.4095 270.566 32.2285C269.326 31.0475 268.706 29.3273 268.706 27.068V17.1707H265.296V13.3196H268.706V8.62131H273.55V13.3196H279.092V17.1707H273.55V26.9525C273.55 27.9538 273.796 28.724 274.287 29.2632C274.777 29.7766 275.488 30.0334 276.418 30.0334C277.503 30.0334 278.407 29.751 279.131 29.1861L280.487 32.6136Z" fill="#FD6905"/>
<path d="M292.378 12.9345C295.426 12.9345 297.751 13.6662 299.353 15.1297C300.981 16.5674 301.795 18.7497 301.795 21.6765V33.7304H297.222V31.2272C296.628 32.1258 295.775 32.819 294.664 33.3068C293.579 33.7689 292.261 34 290.711 34C289.161 34 287.805 33.7433 286.642 33.2298C285.48 32.6906 284.575 31.9589 283.929 31.0347C283.309 30.0847 282.999 29.0193 282.999 27.8383C282.999 25.9897 283.684 24.5135 285.053 23.4095C286.448 22.2798 288.631 21.715 291.603 21.715H296.95V21.4069C296.95 19.9692 296.511 18.8652 295.633 18.095C294.78 17.3248 293.501 16.9397 291.796 16.9397C290.634 16.9397 289.484 17.1194 288.347 17.4788C287.236 17.8383 286.293 18.3389 285.518 18.9807L283.619 15.4763C284.705 14.6547 286.009 14.0257 287.533 13.5892C289.058 13.1528 290.672 12.9345 292.378 12.9345ZM291.719 30.4955C292.933 30.4955 294.005 30.2259 294.935 29.6868C295.891 29.122 296.563 28.3261 296.95 27.2991V24.9114H291.951C289.161 24.9114 287.766 25.8229 287.766 27.6457C287.766 28.5186 288.115 29.2118 288.812 29.7253C289.51 30.2388 290.479 30.4955 291.719 30.4955Z" fill="#FD6905"/>
<path d="M320.451 32.6136C319.883 33.0757 319.185 33.4223 318.359 33.6534C317.558 33.8845 316.705 34 315.801 34C313.527 34 311.771 33.4095 310.53 32.2285C309.29 31.0475 308.67 29.3273 308.67 27.068V17.1707H305.26V13.3196H308.67V8.62131H313.514V13.3196H319.056V17.1707H313.514V26.9525C313.514 27.9538 313.76 28.724 314.251 29.2632C314.742 29.7766 315.452 30.0334 316.382 30.0334C317.467 30.0334 318.372 29.751 319.095 29.1861L320.451 32.6136Z" fill="#FD6905"/>
<path d="M324.436 13.1656H329.28V33.7304H324.436V13.1656ZM326.878 9.77664C325.999 9.77664 325.263 9.50706 324.669 8.96791C324.074 8.40308 323.777 7.70988 323.777 6.88832C323.777 6.06675 324.074 5.38639 324.669 4.84724C325.263 4.28241 325.999 4 326.878 4C327.756 4 328.492 4.26958 329.087 4.80873C329.681 5.32221 329.978 5.97689 329.978 6.77278C329.978 7.62002 329.681 8.3389 329.087 8.9294C328.518 9.49422 327.782 9.77664 326.878 9.77664Z" fill="#FD6905"/>
<path d="M344.939 34C342.846 34 340.96 33.5507 339.281 32.6521C337.602 31.7535 336.284 30.5083 335.328 28.9166C334.398 27.2991 333.933 25.4763 333.933 23.448C333.933 21.4198 334.398 19.6098 335.328 18.018C336.284 16.4262 337.602 15.181 339.281 14.2824C340.96 13.3838 342.846 12.9345 344.939 12.9345C347.058 12.9345 348.956 13.3838 350.636 14.2824C352.315 15.181 353.62 16.4262 354.55 18.018C355.506 19.6098 355.984 21.4198 355.984 23.448C355.984 25.4763 355.506 27.2991 354.55 28.9166C353.62 30.5083 352.315 31.7535 350.636 32.6521C348.956 33.5507 347.058 34 344.939 34ZM344.939 29.8793C346.722 29.8793 348.194 29.2888 349.357 28.1078C350.519 26.9268 351.101 25.3736 351.101 23.448C351.101 21.5225 350.519 19.9692 349.357 18.7882C348.194 17.6072 346.722 17.0167 344.939 17.0167C343.156 17.0167 341.684 17.6072 340.521 18.7882C339.384 19.9692 338.816 21.5225 338.816 23.448C338.816 25.3736 339.384 26.9268 340.521 28.1078C341.684 29.2888 343.156 29.8793 344.939 29.8793Z" fill="#FD6905"/>
<path d="M372.358 12.9345C374.967 12.9345 377.06 13.6919 378.636 15.2067C380.212 16.7214 381 18.9679 381 21.9461V33.7304H376.156V22.5623C376.156 20.7651 375.73 19.4172 374.877 18.5186C374.024 17.5944 372.81 17.1322 371.234 17.1322C369.452 17.1322 368.044 17.6714 367.01 18.7497C365.977 19.8023 365.46 21.3299 365.46 23.3325V33.7304H360.616V13.1656H365.227V15.8228C366.028 14.8729 367.036 14.154 368.25 13.6662C369.464 13.1784 370.834 12.9345 372.358 12.9345Z" fill="#FD6905"/>
<defs>
<filter id="filter0_d" x="0" y="0" width="65.834" height="44.71" filterUnits="userSpaceOnUse" color-interpolation-filters="sRGB">
<feFlood flood-opacity="0" result="BackgroundImageFix"/>
<feColorMatrix in="SourceAlpha" type="matrix" values="0 0 0 0 0 0 0 0 0 0 0 0 0 0 0 0 0 0 127 0" result="hardAlpha"/>
<feOffset dy="3"/>
<feGaussianBlur stdDeviation="1.5"/>
<feColorMatrix type="matrix" values="0 0 0 0 0 0 0 0 0 0 0 0 0 0 0 0 0 0 0.229294 0"/>
<feBlend mode="normal" in2="BackgroundImageFix" result="effect1_dropShadow"/>
<feBlend mode="normal" in="SourceGraphic" in2="effect1_dropShadow" result="shape"/>
</filter>
</defs>
</svg>
